<mxfile><diagram id="A77a7JQUWSDHK9cmq90B" name="Page-1"><mxGraphModel dx="986" dy="719" grid="1" gridSize="10" guides="1" tooltips="1" connect="1" arrows="1" fold="1" page="1" pageScale="1" pageWidth="850" pageHeight="1100" math="0" shadow="0"><root><mxCell id="0"/><mxCell id="1" parent="0"/><mxCell id="70" value="" style="rounded=0;whiteSpace=wrap;html=1;" vertex="1" parent="1"><mxGeometry width="850" height="450" as="geometry"/></mxCell><mxCell id="15" value="Usuario:&lt;br&gt;actualizarHogar" style="shape=umlActor;verticalLabelPosition=bottom;verticalAlign=top;html=1;outlineConnect=0;" parent="1" vertex="1"><mxGeometry x="70" y="20" width="70" height="120" as="geometry"/></mxCell><mxCell id="21" value="elhogar:hogares" style="rounded=1;whiteSpace=wrap;html=1;" parent="1" vertex="1"><mxGeometry x="420" y="30" width="120" height="60" as="geometry"/></mxCell><mxCell id="22" value="elHogar:validarHogar" style="rounded=1;whiteSpace=wrap;html=1;" parent="1" vertex="1"><mxGeometry x="700" y="30" width="130" height="60" as="geometry"/></mxCell><mxCell id="24" value="actualizarHogar(elHogar)" style="text;html=1;align=center;verticalAlign=middle;resizable=0;points=[];autosize=1;strokeColor=none;" parent="1" vertex="1"><mxGeometry x="215" y="200" width="150" height="20" as="geometry"/></mxCell><mxCell id="25" value="" style="endArrow=none;html=1;strokeWidth=5;" parent="1" edge="1"><mxGeometry width="50" height="50" relative="1" as="geometry"><mxPoint x="104" y="400" as="sourcePoint"/><mxPoint x="104.41" y="190" as="targetPoint"/></mxGeometry></mxCell><mxCell id="28" value="" style="endArrow=classic;html=1;strokeWidth=1;" parent="1" edge="1"><mxGeometry width="50" height="50" relative="1" as="geometry"><mxPoint x="110" y="200" as="sourcePoint"/><mxPoint x="480" y="200" as="targetPoint"/></mxGeometry></mxCell><mxCell id="29" value="" style="endArrow=none;html=1;strokeWidth=5;" parent="1" edge="1"><mxGeometry width="50" height="50" relative="1" as="geometry"><mxPoint x="480" y="330" as="sourcePoint"/><mxPoint x="480" y="190" as="targetPoint"/></mxGeometry></mxCell><mxCell id="30" value="" style="endArrow=none;dashed=1;html=1;dashPattern=1 3;strokeWidth=2;" parent="1" edge="1"><mxGeometry width="50" height="50" relative="1" as="geometry"><mxPoint x="480" y="190" as="sourcePoint"/><mxPoint x="480" y="90" as="targetPoint"/></mxGeometry></mxCell><mxCell id="31" value="" style="endArrow=none;dashed=1;html=1;dashPattern=1 3;strokeWidth=2;" parent="1" edge="1"><mxGeometry width="50" height="50" relative="1" as="geometry"><mxPoint x="480" y="350" as="sourcePoint"/><mxPoint x="480" y="250" as="targetPoint"/></mxGeometry></mxCell><mxCell id="34" value="validarHogar(elHogar)" style="text;html=1;align=left;verticalAlign=middle;resizable=0;points=[];autosize=1;strokeColor=none;" parent="1" vertex="1"><mxGeometry x="550" y="240" width="130" height="20" as="geometry"/></mxCell><mxCell id="47" value="" style="endArrow=classic;html=1;strokeWidth=1;" parent="1" edge="1"><mxGeometry width="50" height="50" relative="1" as="geometry"><mxPoint x="480" y="240" as="sourcePoint"/><mxPoint x="770" y="240" as="targetPoint"/></mxGeometry></mxCell><mxCell id="48" value="" style="endArrow=none;dashed=1;html=1;dashPattern=1 3;strokeWidth=2;" parent="1" edge="1"><mxGeometry width="50" height="50" relative="1" as="geometry"><mxPoint x="770" y="230" as="sourcePoint"/><mxPoint x="769.71" y="90" as="targetPoint"/></mxGeometry></mxCell><mxCell id="49" value="" style="endArrow=none;html=1;strokeWidth=5;" parent="1" edge="1"><mxGeometry width="50" height="50" relative="1" as="geometry"><mxPoint x="770" y="380" as="sourcePoint"/><mxPoint x="770" y="230" as="targetPoint"/></mxGeometry></mxCell><mxCell id="51" value="" style="endArrow=none;dashed=1;html=1;dashPattern=1 3;strokeWidth=2;" parent="1" edge="1"><mxGeometry width="50" height="50" relative="1" as="geometry"><mxPoint x="770" y="420" as="sourcePoint"/><mxPoint x="769.71" y="260" as="targetPoint"/></mxGeometry></mxCell><mxCell id="55" value="" style="endArrow=classic;html=1;strokeWidth=1;dashed=1;" parent="1" edge="1"><mxGeometry width="50" height="50" relative="1" as="geometry"><mxPoint x="770" y="380" as="sourcePoint"/><mxPoint x="110" y="380" as="targetPoint"/></mxGeometry></mxCell><mxCell id="60" value="" style="endArrow=classic;html=1;strokeWidth=1;dashed=1;" parent="1" edge="1"><mxGeometry width="50" height="50" relative="1" as="geometry"><mxPoint x="770" y="300" as="sourcePoint"/><mxPoint x="480" y="300" as="targetPoint"/></mxGeometry></mxCell><mxCell id="61" value="[ Hogar no&amp;nbsp; existente ]&amp;nbsp; &quot;Hogar no registrado&quot;" style="text;html=1;align=left;verticalAlign=middle;resizable=0;points=[];autosize=1;strokeColor=none;" parent="1" vertex="1"><mxGeometry x="500" y="300" width="250" height="20" as="geometry"/></mxCell><mxCell id="62" value="" style="endArrow=classic;html=1;strokeWidth=1;dashed=1;" parent="1" edge="1"><mxGeometry width="50" height="50" relative="1" as="geometry"><mxPoint x="475" y="319" as="sourcePoint"/><mxPoint x="105" y="319.5" as="targetPoint"/></mxGeometry></mxCell><mxCell id="64" value="&quot;Hogar no registrado&quot;" style="text;html=1;align=left;verticalAlign=middle;resizable=0;points=[];autosize=1;strokeColor=none;" parent="1" vertex="1"><mxGeometry x="235" y="320" width="130" height="20" as="geometry"/></mxCell><mxCell id="65" value="Hogar actualizado con exito" style="text;html=1;align=left;verticalAlign=middle;resizable=0;points=[];autosize=1;strokeColor=none;" parent="1" vertex="1"><mxGeometry x="420" y="380" width="160" height="20" as="geometry"/></mxCell></root></mxGraphModel></diagram></mxfile>